<mxfile host="app.diagrams.net" modified="2021-02-04T11:45:37.364Z" agent="5.0 (Macintosh; Intel Mac OS X 10_15_6) AppleWebKit/605.1.15 (KHTML, like Gecko) Version/14.0.3 Safari/605.1.15" etag="TUh5ad_tS05rbqsoQRW7" version="14.2.9" type="github">
  <diagram id="C5RBs43oDa-KdzZeNtuy" name="Page-1">
    <mxGraphModel dx="830" dy="549" grid="1" gridSize="10" guides="1" tooltips="1" connect="1" arrows="1" fold="1" page="1" pageScale="1" pageWidth="1169" pageHeight="1654" math="0" shadow="0">
      <root>
        <mxCell id="WIyWlLk6GJQsqaUBKTNV-0" />
        <mxCell id="WIyWlLk6GJQsqaUBKTNV-1" parent="WIyWlLk6GJQsqaUBKTNV-0" />
        <mxCell id="Bzb0bw2wv8bnMTNHn3xa-2" value="" style="edgeStyle=orthogonalEdgeStyle;rounded=0;orthogonalLoop=1;jettySize=auto;html=1;" parent="WIyWlLk6GJQsqaUBKTNV-1" source="Bzb0bw2wv8bnMTNHn3xa-0" target="Bzb0bw2wv8bnMTNHn3xa-1" edge="1">
          <mxGeometry relative="1" as="geometry" />
        </mxCell>
        <mxCell id="Bzb0bw2wv8bnMTNHn3xa-0" value="START" style="ellipse;whiteSpace=wrap;html=1;" parent="WIyWlLk6GJQsqaUBKTNV-1" vertex="1">
          <mxGeometry x="565" y="10" width="120" height="80" as="geometry" />
        </mxCell>
        <mxCell id="Bzb0bw2wv8bnMTNHn3xa-4" value="" style="edgeStyle=orthogonalEdgeStyle;rounded=0;orthogonalLoop=1;jettySize=auto;html=1;" parent="WIyWlLk6GJQsqaUBKTNV-1" source="Bzb0bw2wv8bnMTNHn3xa-1" target="Bzb0bw2wv8bnMTNHn3xa-3" edge="1">
          <mxGeometry relative="1" as="geometry" />
        </mxCell>
        <mxCell id="Bzb0bw2wv8bnMTNHn3xa-1" value="모임통장 계좌 선택" style="whiteSpace=wrap;html=1;" parent="WIyWlLk6GJQsqaUBKTNV-1" vertex="1">
          <mxGeometry x="565" y="120" width="120" height="60" as="geometry" />
        </mxCell>
        <mxCell id="Bzb0bw2wv8bnMTNHn3xa-8" value="" style="edgeStyle=orthogonalEdgeStyle;rounded=0;orthogonalLoop=1;jettySize=auto;html=1;" parent="WIyWlLk6GJQsqaUBKTNV-1" source="Bzb0bw2wv8bnMTNHn3xa-3" target="Bzb0bw2wv8bnMTNHn3xa-7" edge="1">
          <mxGeometry relative="1" as="geometry" />
        </mxCell>
        <mxCell id="Bzb0bw2wv8bnMTNHn3xa-3" value="거래 내역 조회" style="whiteSpace=wrap;html=1;" parent="WIyWlLk6GJQsqaUBKTNV-1" vertex="1">
          <mxGeometry x="565" y="210" width="120" height="60" as="geometry" />
        </mxCell>
        <mxCell id="Bzb0bw2wv8bnMTNHn3xa-11" value="" style="edgeStyle=orthogonalEdgeStyle;rounded=0;orthogonalLoop=1;jettySize=auto;html=1;" parent="WIyWlLk6GJQsqaUBKTNV-1" source="Bzb0bw2wv8bnMTNHn3xa-7" target="Bzb0bw2wv8bnMTNHn3xa-9" edge="1">
          <mxGeometry relative="1" as="geometry" />
        </mxCell>
        <mxCell id="Bzb0bw2wv8bnMTNHn3xa-7" value="회비관리" style="whiteSpace=wrap;html=1;" parent="WIyWlLk6GJQsqaUBKTNV-1" vertex="1">
          <mxGeometry x="240" y="310" width="120" height="60" as="geometry" />
        </mxCell>
        <mxCell id="Bzb0bw2wv8bnMTNHn3xa-13" value="" style="edgeStyle=orthogonalEdgeStyle;rounded=0;orthogonalLoop=1;jettySize=auto;html=1;entryX=0.5;entryY=0;entryDx=0;entryDy=0;" parent="WIyWlLk6GJQsqaUBKTNV-1" source="Bzb0bw2wv8bnMTNHn3xa-9" target="Bzb0bw2wv8bnMTNHn3xa-12" edge="1">
          <mxGeometry relative="1" as="geometry" />
        </mxCell>
        <mxCell id="Bzb0bw2wv8bnMTNHn3xa-15" value="" style="edgeStyle=orthogonalEdgeStyle;rounded=0;orthogonalLoop=1;jettySize=auto;html=1;entryX=0.5;entryY=0;entryDx=0;entryDy=0;" parent="WIyWlLk6GJQsqaUBKTNV-1" source="Bzb0bw2wv8bnMTNHn3xa-9" target="Bzb0bw2wv8bnMTNHn3xa-14" edge="1">
          <mxGeometry relative="1" as="geometry" />
        </mxCell>
        <mxCell id="Bzb0bw2wv8bnMTNHn3xa-9" value="회비 입금현황" style="whiteSpace=wrap;html=1;" parent="WIyWlLk6GJQsqaUBKTNV-1" vertex="1">
          <mxGeometry x="240" y="400" width="120" height="60" as="geometry" />
        </mxCell>
        <mxCell id="Bzb0bw2wv8bnMTNHn3xa-53" value="" style="edgeStyle=orthogonalEdgeStyle;rounded=0;orthogonalLoop=1;jettySize=auto;html=1;" parent="WIyWlLk6GJQsqaUBKTNV-1" source="Bzb0bw2wv8bnMTNHn3xa-12" target="Bzb0bw2wv8bnMTNHn3xa-52" edge="1">
          <mxGeometry relative="1" as="geometry" />
        </mxCell>
        <mxCell id="Bzb0bw2wv8bnMTNHn3xa-12" value="기간별" style="whiteSpace=wrap;html=1;" parent="WIyWlLk6GJQsqaUBKTNV-1" vertex="1">
          <mxGeometry x="40" y="450" width="120" height="60" as="geometry" />
        </mxCell>
        <mxCell id="Bzb0bw2wv8bnMTNHn3xa-19" value="" style="edgeStyle=orthogonalEdgeStyle;rounded=0;orthogonalLoop=1;jettySize=auto;html=1;" parent="WIyWlLk6GJQsqaUBKTNV-1" source="Bzb0bw2wv8bnMTNHn3xa-14" target="Bzb0bw2wv8bnMTNHn3xa-18" edge="1">
          <mxGeometry relative="1" as="geometry" />
        </mxCell>
        <mxCell id="Bzb0bw2wv8bnMTNHn3xa-14" value="멤버별" style="whiteSpace=wrap;html=1;" parent="WIyWlLk6GJQsqaUBKTNV-1" vertex="1">
          <mxGeometry x="440" y="450" width="120" height="60" as="geometry" />
        </mxCell>
        <mxCell id="Bzb0bw2wv8bnMTNHn3xa-16" value="년도별/월별 &lt;br&gt;입금 내역 조회" style="whiteSpace=wrap;html=1;" parent="WIyWlLk6GJQsqaUBKTNV-1" vertex="1">
          <mxGeometry x="40" y="650" width="120" height="60" as="geometry" />
        </mxCell>
        <mxCell id="Bzb0bw2wv8bnMTNHn3xa-49" value="" style="edgeStyle=orthogonalEdgeStyle;rounded=0;orthogonalLoop=1;jettySize=auto;html=1;" parent="WIyWlLk6GJQsqaUBKTNV-1" source="Bzb0bw2wv8bnMTNHn3xa-18" target="Bzb0bw2wv8bnMTNHn3xa-48" edge="1">
          <mxGeometry relative="1" as="geometry" />
        </mxCell>
        <mxCell id="Bzb0bw2wv8bnMTNHn3xa-18" value="멤버 선택" style="whiteSpace=wrap;html=1;" parent="WIyWlLk6GJQsqaUBKTNV-1" vertex="1">
          <mxGeometry x="440" y="540" width="120" height="60" as="geometry" />
        </mxCell>
        <mxCell id="Bzb0bw2wv8bnMTNHn3xa-20" value="입금자명(받는분표기)&lt;br&gt;에 따라&amp;nbsp;&lt;br&gt;월별 입금 내역 조회" style="whiteSpace=wrap;html=1;" parent="WIyWlLk6GJQsqaUBKTNV-1" vertex="1">
          <mxGeometry x="440" y="730" width="120" height="60" as="geometry" />
        </mxCell>
        <mxCell id="Bzb0bw2wv8bnMTNHn3xa-24" value="거래 내역 선택" style="rounded=0;whiteSpace=wrap;html=1;" parent="WIyWlLk6GJQsqaUBKTNV-1" vertex="1">
          <mxGeometry x="890" y="310" width="120" height="60" as="geometry" />
        </mxCell>
        <mxCell id="Bzb0bw2wv8bnMTNHn3xa-25" value="" style="endArrow=classic;html=1;exitX=1;exitY=0.5;exitDx=0;exitDy=0;entryX=0.5;entryY=0;entryDx=0;entryDy=0;rounded=0;" parent="WIyWlLk6GJQsqaUBKTNV-1" source="Bzb0bw2wv8bnMTNHn3xa-3" target="Bzb0bw2wv8bnMTNHn3xa-24" edge="1">
          <mxGeometry width="50" height="50" relative="1" as="geometry">
            <mxPoint x="680" y="410" as="sourcePoint" />
            <mxPoint x="950" y="300" as="targetPoint" />
            <Array as="points">
              <mxPoint x="950" y="240" />
            </Array>
          </mxGeometry>
        </mxCell>
        <mxCell id="Bzb0bw2wv8bnMTNHn3xa-29" value="" style="edgeStyle=orthogonalEdgeStyle;rounded=0;orthogonalLoop=1;jettySize=auto;html=1;exitX=0;exitY=0.5;exitDx=0;exitDy=0;" parent="WIyWlLk6GJQsqaUBKTNV-1" source="Bzb0bw2wv8bnMTNHn3xa-24" target="Bzb0bw2wv8bnMTNHn3xa-28" edge="1">
          <mxGeometry relative="1" as="geometry">
            <mxPoint x="890" y="430" as="sourcePoint" />
          </mxGeometry>
        </mxCell>
        <mxCell id="Bzb0bw2wv8bnMTNHn3xa-31" value="" style="edgeStyle=orthogonalEdgeStyle;rounded=0;orthogonalLoop=1;jettySize=auto;html=1;exitX=1;exitY=0.5;exitDx=0;exitDy=0;" parent="WIyWlLk6GJQsqaUBKTNV-1" source="Bzb0bw2wv8bnMTNHn3xa-24" target="Bzb0bw2wv8bnMTNHn3xa-30" edge="1">
          <mxGeometry relative="1" as="geometry">
            <mxPoint x="1020" y="430" as="sourcePoint" />
          </mxGeometry>
        </mxCell>
        <mxCell id="Bzb0bw2wv8bnMTNHn3xa-35" value="" style="edgeStyle=orthogonalEdgeStyle;rounded=0;orthogonalLoop=1;jettySize=auto;html=1;" parent="WIyWlLk6GJQsqaUBKTNV-1" source="Bzb0bw2wv8bnMTNHn3xa-28" target="Bzb0bw2wv8bnMTNHn3xa-34" edge="1">
          <mxGeometry relative="1" as="geometry" />
        </mxCell>
        <mxCell id="Bzb0bw2wv8bnMTNHn3xa-28" value="입금 거래 내역일 경우" style="whiteSpace=wrap;html=1;rounded=0;" parent="WIyWlLk6GJQsqaUBKTNV-1" vertex="1">
          <mxGeometry x="800" y="390" width="120" height="60" as="geometry" />
        </mxCell>
        <mxCell id="Bzb0bw2wv8bnMTNHn3xa-33" value="" style="edgeStyle=orthogonalEdgeStyle;rounded=0;orthogonalLoop=1;jettySize=auto;html=1;" parent="WIyWlLk6GJQsqaUBKTNV-1" source="Bzb0bw2wv8bnMTNHn3xa-30" target="Bzb0bw2wv8bnMTNHn3xa-32" edge="1">
          <mxGeometry relative="1" as="geometry" />
        </mxCell>
        <mxCell id="Bzb0bw2wv8bnMTNHn3xa-30" value="출금 거래 내역일 경우" style="whiteSpace=wrap;html=1;rounded=0;" parent="WIyWlLk6GJQsqaUBKTNV-1" vertex="1">
          <mxGeometry x="980" y="390" width="120" height="60" as="geometry" />
        </mxCell>
        <mxCell id="Bzb0bw2wv8bnMTNHn3xa-32" value="거래내역 상세" style="whiteSpace=wrap;html=1;rounded=0;" parent="WIyWlLk6GJQsqaUBKTNV-1" vertex="1">
          <mxGeometry x="980" y="470" width="120" height="60" as="geometry" />
        </mxCell>
        <mxCell id="Bzb0bw2wv8bnMTNHn3xa-60" value="" style="edgeStyle=orthogonalEdgeStyle;rounded=0;orthogonalLoop=1;jettySize=auto;html=1;" parent="WIyWlLk6GJQsqaUBKTNV-1" source="Bzb0bw2wv8bnMTNHn3xa-34" target="Bzb0bw2wv8bnMTNHn3xa-59" edge="1">
          <mxGeometry relative="1" as="geometry" />
        </mxCell>
        <mxCell id="Bzb0bw2wv8bnMTNHn3xa-34" value="거래내역 상세" style="whiteSpace=wrap;html=1;rounded=0;" parent="WIyWlLk6GJQsqaUBKTNV-1" vertex="1">
          <mxGeometry x="800" y="480" width="120" height="60" as="geometry" />
        </mxCell>
        <mxCell id="Bzb0bw2wv8bnMTNHn3xa-38" value="" style="endArrow=classic;html=1;entryX=0.5;entryY=1;entryDx=0;entryDy=0;exitX=0;exitY=0.5;exitDx=0;exitDy=0;rounded=0;" parent="WIyWlLk6GJQsqaUBKTNV-1" source="Bzb0bw2wv8bnMTNHn3xa-34" target="Bzb0bw2wv8bnMTNHn3xa-3" edge="1">
          <mxGeometry width="50" height="50" relative="1" as="geometry">
            <mxPoint x="760" y="510" as="sourcePoint" />
            <mxPoint x="620" y="360" as="targetPoint" />
            <Array as="points">
              <mxPoint x="760" y="510" />
              <mxPoint x="760" y="320" />
              <mxPoint x="625" y="320" />
            </Array>
          </mxGeometry>
        </mxCell>
        <mxCell id="Bzb0bw2wv8bnMTNHn3xa-42" value="" style="edgeStyle=orthogonalEdgeStyle;rounded=0;orthogonalLoop=1;jettySize=auto;html=1;" parent="WIyWlLk6GJQsqaUBKTNV-1" source="Bzb0bw2wv8bnMTNHn3xa-39" target="Bzb0bw2wv8bnMTNHn3xa-41" edge="1">
          <mxGeometry relative="1" as="geometry" />
        </mxCell>
        <mxCell id="Bzb0bw2wv8bnMTNHn3xa-39" value="멤버 선택" style="whiteSpace=wrap;html=1;rounded=0;" parent="WIyWlLk6GJQsqaUBKTNV-1" vertex="1">
          <mxGeometry x="800" y="760" width="120" height="60" as="geometry" />
        </mxCell>
        <mxCell id="Bzb0bw2wv8bnMTNHn3xa-72" value="" style="edgeStyle=orthogonalEdgeStyle;rounded=0;orthogonalLoop=1;jettySize=auto;html=1;fontSize=10;" parent="WIyWlLk6GJQsqaUBKTNV-1" source="Bzb0bw2wv8bnMTNHn3xa-41" target="Bzb0bw2wv8bnMTNHn3xa-71" edge="1">
          <mxGeometry relative="1" as="geometry">
            <Array as="points">
              <mxPoint x="655" y="880" />
            </Array>
          </mxGeometry>
        </mxCell>
        <mxCell id="Bzb0bw2wv8bnMTNHn3xa-41" value="모임회비 입금자 변경&lt;br&gt;완료" style="whiteSpace=wrap;html=1;rounded=0;" parent="WIyWlLk6GJQsqaUBKTNV-1" vertex="1">
          <mxGeometry x="800" y="850" width="120" height="60" as="geometry" />
        </mxCell>
        <mxCell id="Bzb0bw2wv8bnMTNHn3xa-43" value="&lt;font style=&quot;font-size: 10px&quot;&gt;*입금자명을 다르게 하여 입금을 했거나 &lt;br&gt;멤버 내에 동명이인이 존재할시 &lt;br&gt;회비입금현황에 관리가 되지 않는 경우&amp;nbsp;&lt;/font&gt;" style="text;html=1;strokeColor=none;fillColor=none;align=center;verticalAlign=middle;whiteSpace=wrap;rounded=0;" parent="WIyWlLk6GJQsqaUBKTNV-1" vertex="1">
          <mxGeometry x="670" y="545" width="180" height="50" as="geometry" />
        </mxCell>
        <mxCell id="Bzb0bw2wv8bnMTNHn3xa-55" value="" style="edgeStyle=orthogonalEdgeStyle;rounded=0;orthogonalLoop=1;jettySize=auto;html=1;" parent="WIyWlLk6GJQsqaUBKTNV-1" source="Bzb0bw2wv8bnMTNHn3xa-44" target="Bzb0bw2wv8bnMTNHn3xa-52" edge="1">
          <mxGeometry relative="1" as="geometry" />
        </mxCell>
        <mxCell id="Bzb0bw2wv8bnMTNHn3xa-44" value="거래내역" style="shape=cylinder3;whiteSpace=wrap;html=1;boundedLbl=1;backgroundOutline=1;size=15;" parent="WIyWlLk6GJQsqaUBKTNV-1" vertex="1">
          <mxGeometry x="240" y="560" width="90" height="70" as="geometry" />
        </mxCell>
        <mxCell id="Bzb0bw2wv8bnMTNHn3xa-51" value="" style="edgeStyle=orthogonalEdgeStyle;rounded=0;orthogonalLoop=1;jettySize=auto;html=1;" parent="WIyWlLk6GJQsqaUBKTNV-1" source="Bzb0bw2wv8bnMTNHn3xa-48" target="Bzb0bw2wv8bnMTNHn3xa-20" edge="1">
          <mxGeometry relative="1" as="geometry" />
        </mxCell>
        <mxCell id="Bzb0bw2wv8bnMTNHn3xa-48" value="받는분표기, &lt;br&gt;거래일자" style="shape=parallelogram;perimeter=parallelogramPerimeter;whiteSpace=wrap;html=1;fixedSize=1;" parent="WIyWlLk6GJQsqaUBKTNV-1" vertex="1">
          <mxGeometry x="440" y="630" width="120" height="60" as="geometry" />
        </mxCell>
        <mxCell id="Bzb0bw2wv8bnMTNHn3xa-50" value="" style="endArrow=classic;html=1;exitX=1;exitY=0.5;exitDx=0;exitDy=0;exitPerimeter=0;entryX=0;entryY=0.5;entryDx=0;entryDy=0;rounded=0;" parent="WIyWlLk6GJQsqaUBKTNV-1" source="Bzb0bw2wv8bnMTNHn3xa-44" target="Bzb0bw2wv8bnMTNHn3xa-48" edge="1">
          <mxGeometry width="50" height="50" relative="1" as="geometry">
            <mxPoint x="530" y="630" as="sourcePoint" />
            <mxPoint x="580" y="580" as="targetPoint" />
            <Array as="points">
              <mxPoint x="400" y="595" />
              <mxPoint x="400" y="660" />
            </Array>
          </mxGeometry>
        </mxCell>
        <mxCell id="Bzb0bw2wv8bnMTNHn3xa-54" value="" style="edgeStyle=orthogonalEdgeStyle;rounded=0;orthogonalLoop=1;jettySize=auto;html=1;" parent="WIyWlLk6GJQsqaUBKTNV-1" source="Bzb0bw2wv8bnMTNHn3xa-52" target="Bzb0bw2wv8bnMTNHn3xa-16" edge="1">
          <mxGeometry relative="1" as="geometry" />
        </mxCell>
        <mxCell id="Bzb0bw2wv8bnMTNHn3xa-52" value="거래일자" style="shape=parallelogram;perimeter=parallelogramPerimeter;whiteSpace=wrap;html=1;fixedSize=1;" parent="WIyWlLk6GJQsqaUBKTNV-1" vertex="1">
          <mxGeometry x="40" y="540" width="120" height="60" as="geometry" />
        </mxCell>
        <mxCell id="Bzb0bw2wv8bnMTNHn3xa-56" value="END" style="ellipse;whiteSpace=wrap;html=1;" parent="WIyWlLk6GJQsqaUBKTNV-1" vertex="1">
          <mxGeometry x="565" y="910" width="120" height="80" as="geometry" />
        </mxCell>
        <mxCell id="Bzb0bw2wv8bnMTNHn3xa-57" value="" style="endArrow=classic;html=1;exitX=0.5;exitY=1;exitDx=0;exitDy=0;entryX=0;entryY=0.5;entryDx=0;entryDy=0;rounded=0;" parent="WIyWlLk6GJQsqaUBKTNV-1" source="Bzb0bw2wv8bnMTNHn3xa-16" target="Bzb0bw2wv8bnMTNHn3xa-56" edge="1">
          <mxGeometry width="50" height="50" relative="1" as="geometry">
            <mxPoint x="470" y="790" as="sourcePoint" />
            <mxPoint x="520" y="740" as="targetPoint" />
            <Array as="points">
              <mxPoint x="100" y="950" />
            </Array>
          </mxGeometry>
        </mxCell>
        <mxCell id="Bzb0bw2wv8bnMTNHn3xa-58" value="" style="endArrow=classic;html=1;exitX=0.5;exitY=1;exitDx=0;exitDy=0;entryX=0;entryY=0;entryDx=0;entryDy=0;rounded=0;" parent="WIyWlLk6GJQsqaUBKTNV-1" source="Bzb0bw2wv8bnMTNHn3xa-20" target="Bzb0bw2wv8bnMTNHn3xa-56" edge="1">
          <mxGeometry width="50" height="50" relative="1" as="geometry">
            <mxPoint x="470" y="790" as="sourcePoint" />
            <mxPoint x="520" y="740" as="targetPoint" />
            <Array as="points">
              <mxPoint x="500" y="880" />
              <mxPoint x="583" y="880" />
            </Array>
          </mxGeometry>
        </mxCell>
        <mxCell id="Bzb0bw2wv8bnMTNHn3xa-63" value="" style="edgeStyle=orthogonalEdgeStyle;rounded=0;orthogonalLoop=1;jettySize=auto;html=1;" parent="WIyWlLk6GJQsqaUBKTNV-1" source="Bzb0bw2wv8bnMTNHn3xa-59" target="Bzb0bw2wv8bnMTNHn3xa-62" edge="1">
          <mxGeometry relative="1" as="geometry" />
        </mxCell>
        <mxCell id="Bzb0bw2wv8bnMTNHn3xa-59" value="&lt;span&gt;모임회비 입금자&lt;br&gt;변경&amp;nbsp;&lt;/span&gt;&lt;span&gt;선택&lt;/span&gt;" style="rhombus;whiteSpace=wrap;html=1;" parent="WIyWlLk6GJQsqaUBKTNV-1" vertex="1">
          <mxGeometry x="807.5" y="570" width="105" height="80" as="geometry" />
        </mxCell>
        <mxCell id="Bzb0bw2wv8bnMTNHn3xa-66" value="" style="edgeStyle=orthogonalEdgeStyle;rounded=0;orthogonalLoop=1;jettySize=auto;html=1;" parent="WIyWlLk6GJQsqaUBKTNV-1" source="Bzb0bw2wv8bnMTNHn3xa-62" target="Bzb0bw2wv8bnMTNHn3xa-39" edge="1">
          <mxGeometry relative="1" as="geometry" />
        </mxCell>
        <mxCell id="Bzb0bw2wv8bnMTNHn3xa-62" value="고객명" style="shape=parallelogram;perimeter=parallelogramPerimeter;whiteSpace=wrap;html=1;fixedSize=1;" parent="WIyWlLk6GJQsqaUBKTNV-1" vertex="1">
          <mxGeometry x="800" y="670" width="120" height="60" as="geometry" />
        </mxCell>
        <mxCell id="Bzb0bw2wv8bnMTNHn3xa-65" value="" style="edgeStyle=orthogonalEdgeStyle;rounded=0;orthogonalLoop=1;jettySize=auto;html=1;" parent="WIyWlLk6GJQsqaUBKTNV-1" source="Bzb0bw2wv8bnMTNHn3xa-64" target="Bzb0bw2wv8bnMTNHn3xa-62" edge="1">
          <mxGeometry relative="1" as="geometry" />
        </mxCell>
        <mxCell id="Bzb0bw2wv8bnMTNHn3xa-64" value="모임통장멤버" style="shape=cylinder3;whiteSpace=wrap;html=1;boundedLbl=1;backgroundOutline=1;size=15;" parent="WIyWlLk6GJQsqaUBKTNV-1" vertex="1">
          <mxGeometry x="610" y="665" width="90" height="70" as="geometry" />
        </mxCell>
        <mxCell id="Bzb0bw2wv8bnMTNHn3xa-67" value="모임통장에 가입된 멤버" style="text;html=1;strokeColor=none;fillColor=none;align=center;verticalAlign=middle;whiteSpace=wrap;rounded=0;fontSize=10;" parent="WIyWlLk6GJQsqaUBKTNV-1" vertex="1">
          <mxGeometry x="690" y="680" width="120" height="20" as="geometry" />
        </mxCell>
        <mxCell id="Bzb0bw2wv8bnMTNHn3xa-68" value="" style="endArrow=classic;html=1;fontSize=10;exitX=0;exitY=0.5;exitDx=0;exitDy=0;entryX=0.3;entryY=0.05;entryDx=0;entryDy=0;entryPerimeter=0;rounded=0;" parent="WIyWlLk6GJQsqaUBKTNV-1" source="Bzb0bw2wv8bnMTNHn3xa-59" target="Bzb0bw2wv8bnMTNHn3xa-56" edge="1">
          <mxGeometry width="50" height="50" relative="1" as="geometry">
            <mxPoint x="800" y="760" as="sourcePoint" />
            <mxPoint x="850" y="710" as="targetPoint" />
            <Array as="points">
              <mxPoint x="601" y="610" />
            </Array>
          </mxGeometry>
        </mxCell>
        <mxCell id="Bzb0bw2wv8bnMTNHn3xa-69" value="거래내역" style="shape=cylinder3;whiteSpace=wrap;html=1;boundedLbl=1;backgroundOutline=1;size=15;" parent="WIyWlLk6GJQsqaUBKTNV-1" vertex="1">
          <mxGeometry x="780" y="115" width="90" height="70" as="geometry" />
        </mxCell>
        <mxCell id="Bzb0bw2wv8bnMTNHn3xa-70" value="" style="endArrow=classic;html=1;fontSize=10;exitX=0;exitY=0.5;exitDx=0;exitDy=0;exitPerimeter=0;entryX=1;entryY=0.5;entryDx=0;entryDy=0;" parent="WIyWlLk6GJQsqaUBKTNV-1" source="Bzb0bw2wv8bnMTNHn3xa-69" target="Bzb0bw2wv8bnMTNHn3xa-1" edge="1">
          <mxGeometry width="50" height="50" relative="1" as="geometry">
            <mxPoint x="750" y="280" as="sourcePoint" />
            <mxPoint x="800" y="230" as="targetPoint" />
          </mxGeometry>
        </mxCell>
        <mxCell id="Bzb0bw2wv8bnMTNHn3xa-71" value="거래내역" style="shape=cylinder3;whiteSpace=wrap;html=1;boundedLbl=1;backgroundOutline=1;size=15;" parent="WIyWlLk6GJQsqaUBKTNV-1" vertex="1">
          <mxGeometry x="610" y="755" width="90" height="70" as="geometry" />
        </mxCell>
        <mxCell id="Bzb0bw2wv8bnMTNHn3xa-73" value="받는분표기 update" style="text;html=1;strokeColor=none;fillColor=none;align=center;verticalAlign=middle;whiteSpace=wrap;rounded=0;fontSize=10;" parent="WIyWlLk6GJQsqaUBKTNV-1" vertex="1">
          <mxGeometry x="670" y="860" width="120" height="20" as="geometry" />
        </mxCell>
        <mxCell id="Bzb0bw2wv8bnMTNHn3xa-74" value="" style="endArrow=classic;html=1;fontSize=10;exitX=0.5;exitY=1;exitDx=0;exitDy=0;entryX=1;entryY=0.5;entryDx=0;entryDy=0;rounded=0;" parent="WIyWlLk6GJQsqaUBKTNV-1" source="Bzb0bw2wv8bnMTNHn3xa-41" target="Bzb0bw2wv8bnMTNHn3xa-56" edge="1">
          <mxGeometry width="50" height="50" relative="1" as="geometry">
            <mxPoint x="760" y="790" as="sourcePoint" />
            <mxPoint x="810" y="740" as="targetPoint" />
            <Array as="points">
              <mxPoint x="860" y="950" />
            </Array>
          </mxGeometry>
        </mxCell>
        <mxCell id="Bzb0bw2wv8bnMTNHn3xa-75" value="F" style="text;html=1;strokeColor=none;fillColor=none;align=center;verticalAlign=middle;whiteSpace=wrap;rounded=0;fontSize=10;" parent="WIyWlLk6GJQsqaUBKTNV-1" vertex="1">
          <mxGeometry x="767.5" y="610" width="40" height="20" as="geometry" />
        </mxCell>
        <mxCell id="Bzb0bw2wv8bnMTNHn3xa-76" value="T" style="text;html=1;strokeColor=none;fillColor=none;align=center;verticalAlign=middle;whiteSpace=wrap;rounded=0;fontSize=10;" parent="WIyWlLk6GJQsqaUBKTNV-1" vertex="1">
          <mxGeometry x="860" y="645" width="40" height="20" as="geometry" />
        </mxCell>
        <mxCell id="Bzb0bw2wv8bnMTNHn3xa-77" value="" style="endArrow=none;html=1;fontSize=10;entryX=0.5;entryY=1;entryDx=0;entryDy=0;rounded=0;" parent="WIyWlLk6GJQsqaUBKTNV-1" target="Bzb0bw2wv8bnMTNHn3xa-32" edge="1">
          <mxGeometry width="50" height="50" relative="1" as="geometry">
            <mxPoint x="860" y="950" as="sourcePoint" />
            <mxPoint x="830" y="760" as="targetPoint" />
            <Array as="points">
              <mxPoint x="1040" y="950" />
            </Array>
          </mxGeometry>
        </mxCell>
        <mxCell id="sYcttjE9Mw9K2hRpGoiJ-0" value="&lt;span&gt;&lt;font style=&quot;font-size: 25px&quot;&gt;거래내역 조회 프로세스&lt;/font&gt;&lt;/span&gt;" style="text;html=1;strokeColor=none;fillColor=none;align=center;verticalAlign=middle;whiteSpace=wrap;rounded=0;fontSize=25;fontStyle=1;labelBackgroundColor=#FFF71C;" vertex="1" parent="WIyWlLk6GJQsqaUBKTNV-1">
          <mxGeometry x="10" y="20" width="260" height="20" as="geometry" />
        </mxCell>
      </root>
    </mxGraphModel>
  </diagram>
</mxfile>
